<?xml version="1.0" encoding="utf-8"?>
<!-- Generator: Adobe Illustrator 27.9.0, SVG Export Plug-In . SVG Version: 6.00 Build 0)  -->
<svg version="1.1" id="Vrstva_1" xmlns="http://www.w3.org/2000/svg" xmlns:xlink="http://www.w3.org/1999/xlink" x="0px" y="0px"
	 viewBox="0 0 226.7716064 226.7716522" style="enable-background:new 0 0 226.7716064 226.7716522;" xml:space="preserve">
<style type="text/css">
	.st0{fill:url(#SVGID_1_);}
</style>
<g>
	<g>
		<g>
			<path d="M44.2661438,129.4544678l-1.2164955,0.4908752l-0.0026665,0.0586853
				c0.5842361,0.1413879,1.096447,0.3841553,1.5339584,0.7309723c0.4348412,0.3441315,0.784317,0.837677,1.0430908,1.4779358
				c0.2080841,0.512207,0.3067894,1.0297394,0.2987862,1.5552979c-0.0080032,0.5282135-0.1200485,1.0217438-0.3334694,1.4859314
				s-0.512207,0.8777008-0.8963623,1.240509c-0.3868256,0.3654785-0.8296738,0.6482697-1.3338776,0.8510132
				c-0.5015373,0.2054138-1.0164146,0.3094635-1.5419617,0.3147888c-0.525547,0.0053406-1.0270844-0.0853577-1.5019455-0.2694397
				c-0.4748573-0.1840668-0.8990326-0.4641876-1.2725143-0.8350067c-0.3708191-0.3734894-0.6616058-0.8136597-0.8670197-1.3258667
				c-0.4801979-1.1818237-0.3761559-2.3129425,0.3067894-3.3933868l-0.0373497-0.0266724l-3.657486,1.4832611l-0.4935341-1.2164917
				l9.4785233-3.8388977L44.2661438,129.4544678z M44.4075356,132.4236908
				c-0.136055-0.3414764-0.3388062-0.6429291-0.6082497-0.9070435c-0.2667732-0.2641144-0.5682297-0.4668579-0.9043655-0.6109161
				c-0.3361397-0.1413879-0.6909485-0.2160797-1.0671005-0.2240906c-0.3761559-0.0079956-0.7389679,0.0586853-1.0857773,0.2000885
				c-0.2507668,0.1013641-0.5042038,0.2561035-0.7576408,0.4695129c-0.253437,0.2107544-0.4801941,0.4988708-0.6776085,0.8616943
				c-0.1974144,0.3628082-0.29879,0.7549744-0.3067932,1.1764679c-0.0080032,0.4241791,0.0560226,0.8056641,0.1947479,1.1444702
				c0.1040421,0.2614441,0.2614365,0.5148773,0.4721909,0.7656403c0.2080841,0.2481079,0.4748611,0.4615326,0.7949905,0.6376038
				c0.3227959,0.1760712,0.693615,0.2881165,1.1124535,0.3361359c0.4188347,0.0453491,0.8456764-0.0160065,1.2751846-0.1920776
				c0.25877-0.1040497,0.5148773-0.2587738,0.7709808-0.4668579s0.4801941-0.4935303,0.6776085-0.8616943
				c0.1947479-0.3681488,0.29879-0.7602997,0.3067932-1.1791382
				C44.6156197,133.1546478,44.5489273,132.7704926,44.4075356,132.4236908z"/>
			<path d="M43.8473053,144.1031036c0.1120453,0.1974182,0.2747803,0.402832,0.4855309,0.6135864
				c0.2107544,0.2107544,0.4775276,0.3894806,0.8003273,0.5308838c0.3254662,0.1440582,0.6455956,0.2240906,0.9683952,0.240097
				l0.7362976,1.2885132c-0.7949905,0.0907135-1.5633011-0.0533447-2.3076057-0.4295044
				c-0.7416344-0.3761444-1.3205376-0.9230347-1.731369-1.6459961c-0.2694435-0.4695282-0.4401817-0.9763947-0.5122108-1.5179596
				c-0.0746956-0.5415497-0.0453491-1.0751038,0.0853691-1.5953064c0.1280518-0.5228882,0.3521423-1.0030823,0.6722717-1.4405975
				c0.3174629-0.4401703,0.7122917-0.7923126,1.1818161-1.0617523c0.4721909-0.269455,0.9763985-0.4295197,1.5152817-0.4802094
				c0.538887-0.0506744,1.0644341,0,1.5766449,0.1574097c0.512207,0.1547241,0.9843979,0.402832,1.4139061,0.7389679
				c0.4295082,0.3388062,0.7789841,0.7442932,1.0484276,1.2138214c0.266777,0.4721985,0.4375114,0.9790649,0.512207,1.5206146
				c0.0720291,0.5415649,0.0453529,1.0724487-0.0800323,1.5926514c-0.1253815,0.5202179-0.3494759,1.000412-0.666935,1.4379272
				c-0.3174629,0.4375-0.7122917,0.7923126-1.1844826,1.0617523c-0.1200485,0.0693665-0.3041267,0.1520691-0.5495567,0.2534485
				l-3.3853798-5.9330902c-0.4775276,0.4321747-0.7736473,0.9763947-0.8883629,1.6300049
				C43.4231339,142.9346313,43.5245094,143.5428772,43.8473053,144.1031036z M48.7319603,141.3153076
				c-0.3254662-0.5709076-0.797657-0.9710693-1.4165764-1.2005005c-0.6215858-0.2294159-1.2351685-0.2507629-1.8434143-0.0640259
				l2.6997643,4.7245941c0.1627312-0.1547241,0.3227959-0.3468018,0.4748611-0.5815735
				c0.1547279-0.2347565,0.2694397-0.5041962,0.3468056-0.8083191c0.0773659-0.3067932,0.1013756-0.6402588,0.0773659-1.0030823
				C49.0440903,142.0195923,48.9320412,141.6621094,48.7319603,141.3153076z"/>
			<path d="M53.6939812,149.1985168c-0.3388062-0.4775391-0.7763176-0.749649-1.3098679-0.8216705
				c-0.5335503-0.0693665-1.0297508,0.0613556-1.4939384,0.3894958l-3.5961304,2.5663757l-0.7629776-1.0671082l6.1811829-4.40979
				l0.7603073,1.0670929l-0.8536797,0.6109161l0.0026665,0.0453491c0.2827835-0.0400085,0.5815697-0.0213318,0.8990326,0.05336
				c0.3147964,0.0746918,0.5895729,0.1947479,0.8216667,0.3628235c0.2320976,0.1680603,0.4135017,0.3387909,0.538887,0.5175323
				l0.1067123,0.1493988l-1.109787,0.7923279L53.6939812,149.1985168z"/>
			<path d="M56.9112892,162.8067169l-0.8803558-0.9710693l3.7188454-3.3746948
				c0.1467247-0.1360626,0.2801132-0.32547,0.3921585-0.5709076c0.1147156-0.2454376,0.149395-0.5255432,0.1013756-0.8430023
				c-0.0453529-0.3201294-0.1734047-0.5949097-0.3868256-0.8270111c-0.1333847-0.1493835-0.3254623-0.2801056-0.5682297-0.3948212
				c-0.2454338-0.1147156-0.5282135-0.1467285-0.8456764-0.1013794s-0.5922432,0.1760712-0.8270035,0.3868256l-3.7188492,3.3747101
				l-0.8803558-0.9710693l3.7188454-3.3746948c0.149395-0.1360626,0.2801132-0.32547,0.3948288-0.5709076
				c0.1120453-0.2454376,0.1467247-0.5255432,0.1013718-0.8430023c-0.0480194-0.3174744-0.1760712-0.5949097-0.3868217-0.8270111
				c-0.136055-0.1493988-0.3254662-0.2801056-0.5709-0.3948212s-0.5282135-0.1467285-0.8456764-0.1013794
				c-0.3174629,0.0480194-0.5922432,0.1760712-0.824337,0.3868256l-3.7188454,3.3747101l-0.8830261-0.9710693l5.6236229-5.1007385
				l0.8803558,0.9710541l-0.6109123,0.5549011l0.0053329,0.0453491c0.3201294-0.0773621,0.6375923-0.0720215,0.9577255,0.0106659
				c0.3174591,0.0827026,0.5655632,0.1974182,0.7443008,0.3414764c0.1787415,0.1467285,0.29879,0.2534332,0.3628159,0.32547
				c0.1707344,0.1867371,0.3227959,0.4081573,0.4561844,0.6669312c0.1333885,0.2561035,0.2054176,0.5362244,0.2134209,0.8403473
				c0.0106697,0.3041229-0.0293465,0.621582-0.1200485,0.9497223c0.4375114-0.0640259,0.8803558-0.021347,1.3312073,0.130722
				c0.4508514,0.1520538,0.824337,0.3921509,1.1257935,0.7229614c0.1707344,0.1867371,0.3174591,0.4188385,0.4428444,0.6936035
				c0.1280518,0.2747803,0.1974144,0.5815735,0.2107544,0.9150391c0.0160065,0.3361359-0.0453529,0.6909485-0.1840744,1.0644379
				c-0.1387253,0.3734894-0.3788223,0.7122955-0.7149582,1.0190887L56.9112892,162.8067169z"/>
			<path d="M64.3649902,169.0839386l0.8296738-1.0164185l-0.0240097-0.0533447
				c-0.5815735,0.1573944-1.1471329,0.1894073-1.6966934,0.0960388c-0.5495567-0.0933838-1.0911102-0.3601532-1.627327-0.7976685
				c-0.4268417-0.3468018-0.7603111-0.7549744-1.0084114-1.2218323c-0.2454338-0.4668579-0.3841553-0.9523773-0.421505-1.4619293
				c-0.0346832-0.5095367,0.0293465-1.0164032,0.1947441-1.5206146c0.162735-0.5041962,0.416172-0.9657288,0.7576447-1.3845673
				c0.3441391-0.4188385,0.7443008-0.7576294,1.2031555-1.0164032c0.4588509-0.2561035,0.9417152-0.4188385,1.4485893-0.4855347
				c0.5042038-0.0640259,1.0110779-0.0240173,1.5152817,0.1227112c0.5068741,0.1493988,0.973732,0.3975067,1.3979034,0.7469788
				c0.9897385,0.8083191,1.4405823,1.8487549,1.3578873,3.1239319l0.0480194,0.0053406l0.8296661-1.0164185l1.0137482,0.8323364
				l-4.8046188,5.8770599L64.3649902,169.0839386z M62.8150253,166.5442352
				c0.2827835,0.2347565,0.6055794,0.402832,0.9683952,0.5042114c0.3601494,0.1040344,0.7229576,0.1387177,1.0857735,0.1013641
				c0.3628159-0.0373383,0.7096252-0.1413879,1.0430908-0.3147888c0.3334732-0.1734009,0.6215897-0.4055023,0.8590164-0.6962891
				c0.1707382-0.2080841,0.3174667-0.4668579,0.4401779-0.7763062c0.1200485-0.3067932,0.1814117-0.6669464,0.1787415-1.0804443
				c0-0.4108276-0.0987091-0.8056641-0.2961197-1.1818085c-0.1947479-0.3734894-0.434845-0.6776123-0.7202911-0.9097137
				c-0.2160873-0.1760712-0.4748611-0.3254547-0.7789841-0.4428406c-0.3041229-0.1200562-0.6402588-0.1787415-1.0057449-0.1787415
				c-0.3681488,0-0.7469711,0.0800323-1.1364632,0.240097c-0.3921585,0.1600647-0.7336311,0.4188385-1.0270844,0.7789917
				c-0.1760712,0.2160797-0.3281326,0.4748535-0.4508476,0.7816467c-0.1253853,0.3041229-0.1867447,0.6642609-0.1814079,1.077774
				c0.0026665,0.4161682,0.1013756,0.8109894,0.2961197,1.1818085
				C62.2814751,166.0026855,62.5215721,166.3068085,62.8150253,166.5442352z"/>
			<path d="M71.3518372,168.4596863l-2.4116516,3.8575592l-1.1124496-0.6962738l4.0256348-6.4372864l1.1124573,0.6962738
				l-0.5442276,0.8670197l0.021347,0.0426941c0.4188309-0.1920776,0.8616791-0.2774506,1.328537-0.2587738
				s0.9337158,0.1760712,1.4005737,0.4668579c0.3201294,0.2000732,0.5922394,0.4561768,0.8216629,0.7683105
				c0.2267609,0.3121338,0.3841553,0.6589355,0.4775314,1.0404205c0.0906982,0.381485,0.1013718,0.7816467,0.0293427,1.2004852
				c-0.0720291,0.4215088-0.2294235,0.8270111-0.4775238,1.219162l-2.4810104,3.9696198l-1.1124573-0.6962738l2.4143219-3.8575745
				c0.1840744-0.2961273,0.2881165-0.6322632,0.3147888-1.0084076c0.0240097-0.37883-0.0586853-0.7309723-0.24543-1.0590973
				c-0.1867447-0.3281403-0.4268417-0.5842438-0.7229614-0.7683258c-0.29879-0.1867371-0.6349258-0.2907715-1.0110779-0.3147888
				c-0.376152-0.0240021-0.7282944,0.0560303-1.056427,0.2427673
				C71.7946777,167.9207916,71.5385742,168.163559,71.3518372,168.4596863z"/>
			<path d="M80.0407028,177.3539734c0.2054214,0.0960388,0.4561844,0.1680603,0.7496414,0.21875
				c0.2961197,0.0506897,0.6162491,0.0400238,0.9630585-0.0320129c0.3441391-0.0720215,0.653595-0.1920776,0.925705-0.3654785
				l1.3445511,0.6242523c-0.5922394,0.5335541-1.3018646,0.8616791-2.1261978,0.9870605
				c-0.8216705,0.1227264-1.6113205,0.0106812-2.3636322-0.3387909c-0.4935303-0.2267609-0.925705-0.5415649-1.2991943-0.9390564
				c-0.3734818-0.4001617-0.6589355-0.8510132-0.8563461-1.349884c-0.1974182-0.5015411-0.293457-1.0217438-0.2881165-1.5659637
				c0.0053329-0.5415649,0.1227112-1.056427,0.349472-1.5499725c0.2294312-0.49086,0.5468903-0.9150391,0.9577255-1.2698517
				c0.4108353-0.3521423,0.8696823-0.6162415,1.3765564-0.784317c0.5068741-0.1707306,1.0324249-0.2427673,1.5793152-0.2160797
				c0.5468826,0.0266724,1.0671005,0.1547241,1.5579605,0.381485c0.4908676,0.2294312,0.9230423,0.5415497,1.299202,0.9417114
				c0.3734818,0.4001617,0.6589355,0.8483429,0.8563461,1.3445587c0.2000809,0.4962006,0.2961197,1.0164032,0.2907867,1.5579529
				c-0.0053406,0.5415649-0.1227188,1.0590973-0.3494797,1.5499725c-0.0586853,0.1280518-0.1600647,0.3014526-0.3014526,0.5255432
				l-6.1971893-2.8704987c-0.1387253,0.6295929-0.0640259,1.2431793,0.2214203,1.8434143
				C79.0162888,176.6470184,79.4537964,177.0818634,80.0407028,177.3539734z M82.404335,172.2505646
				c-0.5949097-0.2774506-1.2111588-0.3281403-1.8514252-0.1574097c-0.6375885,0.1734161-1.1497955,0.509552-1.5366211,1.0137482
				l4.9353409,2.2889404c0.0453491-0.2214203,0.0613556-0.4721985,0.0533524-0.749649
				c-0.0106659-0.2801056-0.0746918-0.5655518-0.1894073-0.8616791c-0.1120453-0.293457-0.2854538-0.5789032-0.5175476-0.8590088
				C83.0659332,172.6427155,82.7698135,172.4186249,82.404335,172.2505646z"/>
			<path d="M88.5508347,176.9884949l-1.3792267,4.335083l-1.2485123-0.3974915l2.2996063-7.2349396l1.2511749,0.3974915
				l-0.3094635,0.9737244l0.0293503,0.0373535c0.3574753-0.2881165,0.7656403-0.4828644,1.2218323-0.5789032
				c0.458847-0.0987091,0.9497147-0.0640259,1.4752655,0.1013794c0.3574753,0.1147156,0.6856079,0.2961121,0.9843979,0.5415497
				c0.2961197,0.2454376,0.5362167,0.5415497,0.7202911,0.8883667c0.1840744,0.3468018,0.2907867,0.7336273,0.3281403,1.1578064
				c0.0346756,0.4241638-0.0186768,0.8563385-0.1600723,1.296524l-1.4165726,4.46315l-1.2511749-0.3974915l1.3792267-4.3377686
				c0.1067123-0.3307953,0.1227188-0.6829529,0.0533524-1.0537567c-0.0693588-0.3708191-0.2347565-0.6936188-0.4988708-0.9657288
				c-0.2614365-0.269455-0.5602264-0.4588623-0.893692-0.565567c-0.3334732-0.1040497-0.6856155-0.1227112-1.0537643-0.05336
				c-0.3734818,0.0693665-0.6936111,0.2374268-0.9657288,0.4988708
				C88.8469543,176.3562317,88.657547,176.655014,88.5508347,176.9884949z"/>
			<path d="M98.0640411,176.4842834l1.0884399,0.2427673l-0.2641068,1.1764832l-1.0857773-0.2427673l-1.3925629,6.2318573
				l-1.2805252-0.2854462l1.3925705-6.2318726l-0.6269226-0.1413879l0.2614365-1.1764832l0.6295929,0.1414032l0.3734818-1.6780243
				l1.2805252,0.2854462L98.0640411,176.4842834z"/>
			<path d="M114.5347443,185.9201202l-1.3071976-0.0693665l0.2694397-5.0153656
				c0.0106735-0.2000885-0.0293427-0.4295044-0.1200485-0.6829529c-0.0933685-0.2534332-0.266777-0.4775238-0.5228806-0.6722717
				c-0.2561035-0.1920776-0.5415497-0.2987823-0.8563461-0.3147888c-0.2000809-0.0106659-0.429512,0.0293427-0.6829453,0.1200409
				c-0.2534409,0.0933838-0.4775314,0.2667847-0.6722717,0.5228882c-0.1920776,0.2561035-0.29879,0.5415497-0.3147964,0.8563538
				l-0.2694473,5.0153656l-1.3098602-0.0720215l0.2694397-5.0153809c0.0106735-0.2000885-0.0293427-0.4268341-0.1200485-0.6802826
				c-0.0907059-0.2561035-0.266777-0.4801941-0.5228806-0.6722717c-0.2561035-0.1947479-0.5415497-0.2987823-0.8563461-0.3147888
				c-0.2000809-0.0106659-0.4268417,0.0293427-0.6829453,0.1200409c-0.2534409,0.0907135-0.4775314,0.2641144-0.6696091,0.5228882
				c-0.1947403,0.2561035-0.2987823,0.5415497-0.3147888,0.8536835l-0.2721176,5.0153656l-1.3098602-0.0693512l0.4108276-7.5817566
				l1.3072052,0.0720215l-0.0426865,0.8243408l0.0373459,0.0266724c0.1734085-0.2774353,0.4001617-0.5015259,0.6856155-0.6642609
				c0.2854462-0.1654053,0.5415497-0.2587738,0.7709808-0.2801208c0.2267609-0.0240021,0.3894882-0.0320129,0.485527-0.0266724
				c0.2534409,0.0133362,0.5175476,0.0640259,0.7923279,0.1547241c0.2774429,0.0880432,0.5255432,0.2374268,0.7443008,0.4455109
				c0.2214203,0.2107544,0.4161682,0.4642029,0.5842361,0.7603149c0.2641068-0.3521423,0.6082458-0.6349182,1.0350876-0.8430023
				c0.429512-0.2080841,0.8643494-0.3014679,1.3098679-0.2774506c0.2534332,0.0133362,0.5202103,0.0746918,0.8029938,0.1814117
				c0.2854462,0.1067047,0.5495529,0.274765,0.7949905,0.5015259c0.24543,0.2294312,0.4508514,0.5228882,0.6162491,0.8883667
				c0.162735,0.3628082,0.2320938,0.7709808,0.2080841,1.2245026L114.5347443,185.9201202z"/>
			<path d="M124.242691,185.15448l-0.1227112-1.3045349l-0.05336-0.021347
				c-0.3014526,0.5202179-0.6829453,0.9390564-1.1391296,1.2591858c-0.4588547,0.3174591-1.0297546,0.5095367-1.7180328,0.5735626
				c-0.5495529,0.05336-1.0751038-0.0026703-1.5766373-0.1600647c-0.5015411-0.1600647-0.9443893-0.4081573-1.3258743-0.7469635
				c-0.3841553-0.3361359-0.6936188-0.7416382-0.9310455-1.2164917c-0.2374344-0.4721985-0.3814926-0.9790649-0.4321747-1.5206299
				c-0.0506897-0.5388794-0.0026703-1.0617676,0.1413879-1.5659637c0.1467285-0.5042114,0.376152-0.9603882,0.6909485-1.3632202
				c0.3121262-0.4001617,0.701622-0.728302,1.1658096-0.9763947c0.4641876-0.2507782,0.9683914-0.400177,1.517952-0.4535217
				c1.2698441-0.1173859,2.3236084,0.3067932,3.1612854,1.272522l0.0373459-0.0293579l-0.1227188-1.3071899l1.3045349-0.1200562
				l0.7096176,7.5577393L124.242691,185.15448z M121.3588562,184.4368591
				c0.3654785-0.0346832,0.7122879-0.1414032,1.0430908-0.3227997c0.3281326-0.1787415,0.6109085-0.4108429,0.8430099-0.6909485
				c0.2320938-0.2801208,0.408165-0.6002502,0.5228729-0.9577332c0.1147156-0.3574677,0.1547318-0.7229614,0.1200485-1.0964355
				c-0.0240097-0.269455-0.1013718-0.5575714-0.2320938-0.8616943c-0.1280518-0.3041229-0.3387985-0.6029053-0.6295853-0.8963623
				s-0.6375961-0.5041962-1.0404282-0.6322479c-0.4028244-0.130722-0.7869873-0.1760712-1.1524658-0.1440582
				c-0.2774429,0.0266724-0.5682297,0.1040344-0.8670197,0.2347565c-0.29879,0.1280518-0.5815659,0.3201294-0.8403397,0.5789032
				c-0.2614441,0.2561035-0.4748611,0.5789032-0.6402588,0.9683838c-0.1654053,0.3894958-0.2267609,0.8136749-0.184082,1.2751923
				c0.02668,0.2774506,0.1013794,0.5682373,0.2267609,0.8750305c0.1253891,0.3041229,0.3334732,0.6029053,0.6295929,0.893692
				c0.2961197,0.293457,0.6429291,0.5041962,1.0404205,0.6349182
				C120.5958786,184.4235077,120.9826965,184.4715271,121.3588562,184.4368591z"/>
			<path d="M128.9405975,181.1235046l0.6642761,3.1292725l-1.2831879,0.2747803l-2.1261978-10.0040741l1.2805176-0.2747803
				l1.2111588,5.6956482l0.9123688-0.1947327l1.4005737-3.5561218l1.5392914-0.32547l-1.6593323,4.2257233l3.2519836,3.1959686
				l-1.5499573,0.3307953l-2.731781-2.6890869L128.9405975,181.1235046z"/>
			<path d="M139.2354584,180.7046661c0.216095-0.0693665,0.4481812-0.1894073,0.6989594-0.3548126
				c0.2480927-0.1654053,0.4748535-0.3921509,0.677597-0.6802826c0.2027588-0.2881165,0.346817-0.5895691,0.4268494-0.9016876
				l1.405899-0.4668579c-0.0666962,0.7976532-0.3574677,1.5206146-0.8750153,2.1768799
				c-0.5148773,0.653595-1.1658173,1.1124573-1.9528046,1.3739014c-0.5148621,0.1680603-1.0457458,0.2374268-1.5926361,0.2027435
				c-0.54422-0.0373535-1.0617676-0.1680756-1.5473022-0.4001617c-0.4855347-0.2294312-0.9123688-0.54422-1.2805176-0.9417114
				c-0.3654785-0.400177-0.6349335-0.8563538-0.8056641-1.3712311s-0.2267609-1.0404205-0.1707306-1.5793152
				c0.056015-0.5388794,0.2107544-1.0430908,0.4641876-1.515274c0.2534332-0.4695282,0.5895691-0.8830261,1.0057373-1.2378387
				s0.8803558-0.6162567,1.3952332-0.7869873c0.5148773-0.1707458,1.0457611-0.240097,1.5926514-0.2027588
				c0.54422,0.0346832,1.0590973,0.1654053,1.544632,0.3921661c0.4855194,0.2240906,0.9096985,0.5388794,1.2778473,0.9363861
				c0.3681488,0.3974915,0.6349335,0.8563385,0.8056641,1.3685455c0.0453491,0.1333923,0.0906982,0.3308105,0.1413879,0.5895844
				l-6.4853058,2.1502075c0.3308105,0.5548859,0.8056641,0.9523773,1.4245758,1.1924896
				C138.0056305,180.8914032,138.6218719,180.91008,139.2354584,180.7046661z M137.4667358,175.3665009
				c-0.6242523,0.2054138-1.1097717,0.5895691-1.4565887,1.1524658c-0.3468018,0.5628967-0.49086,1.1604614-0.4268341,1.7927246
				l5.1647644-1.7126923c-0.1200562-0.1920776-0.2774506-0.3841553-0.4748535-0.5815735
				c-0.2000885-0.1974182-0.4428558-0.3628082-0.7256317-0.4988708c-0.2854462-0.1360474-0.6082458-0.2267609-0.968399-0.27211
				C138.2190552,175.1984253,137.8482361,175.2384491,137.4667358,175.3665009z"/>
			<path d="M144.5549622,176.2415161l-0.4161682-0.9070282l3.8735657-1.7794037l0.4161835,0.9070435L144.5549622,176.2415161z"/>
			<path d="M150.9789124,173.5337524l-2.3396301-3.9456177l1.1257935-0.6696014l2.3236237,3.9135895
				c0.1760712,0.3014679,0.4268341,0.5495605,0.7523041,0.7416382c0.3227997,0.1947479,0.6722717,0.2854462,1.0510864,0.2694397
				c0.3761597-0.0160065,0.7149658-0.1120453,1.0164185-0.2907715c0.3014526-0.1787415,0.5468903-0.4295197,0.7416382-0.7523193
				c0.1947479-0.3254547,0.2854462-0.674942,0.2694397-1.0510864c-0.0160065-0.37883-0.1120453-0.7176208-0.2907867-1.0164185
				l-2.3209381-3.9135895l1.1257782-0.6696014l2.3423004,3.9456024c0.240097,0.4081573,0.3921509,0.8269958,0.4508514,1.2591705
				c0.056015,0.4321899,0.0266724,0.8510132-0.0907135,1.2511902c-0.1173859,0.4001617-0.3174591,0.7709808-0.5949097,1.1151123
				c-0.2801056,0.3441467-0.6189117,0.6322632-1.0164032,0.8696899c-0.400177,0.2374268-0.8163452,0.3948212-1.2511902,0.4748535
				c-0.4348297,0.0800323-0.8563385,0.0773621-1.2645111-0.0133362c-0.4081573-0.088028-0.7896576-0.2614441-1.1391296-0.5202026
				C151.5177917,174.2727203,151.2216797,173.9419098,150.9789124,173.5337524z"/>
			<path d="M157.125412,164.2633057l0.8056641,1.0350952l0.056015-0.0106812
				c-0.0240021-0.600235,0.0693665-1.1604614,0.2854462-1.6753387c0.2134247-0.5148773,0.5922394-0.9844055,1.1364746-1.4085846
				c0.4348297-0.3387909,0.9070282-0.5762329,1.4165649-0.7122803c0.5068817-0.1360626,1.0137482-0.1654053,1.5179596-0.0853729
				c0.5041962,0.0773621,0.9843903,0.2534332,1.4405823,0.5228882c0.4535217,0.27211,0.8483429,0.621582,1.1818085,1.0484161
				c0.3334808,0.4295197,0.5735779,0.8937073,0.7229614,1.3979034c0.1493988,0.5068817,0.2000885,1.0110779,0.1520691,1.5206146
				c-0.0480194,0.5068817-0.2000885,0.9924164-0.456192,1.4512634s-0.6029053,0.859024-1.0377502,1.1978149
				c-1.0057373,0.7843323-2.1235352,0.9950714-3.3480225,0.6295929l-0.0160065,0.0453491l2.4249725,3.113266l-1.0324097,0.8056641
				l-6.2852325-8.0699463L157.125412,164.2633057z M159.9425507,163.3162537
				c-0.2881165,0.2267609-0.5255432,0.5042114-0.7042847,0.8323364c-0.1813965,0.3308105-0.2961121,0.674942-0.3414764,1.0377655
				c-0.0426788,0.3601379-0.0186615,0.7229614,0.074707,1.0884399c0.0960388,0.3628082,0.2587738,0.6936188,0.49086,0.9897308
				c0.1654053,0.2134247,0.3841553,0.4134979,0.6589355,0.6002502c0.27211,0.1867371,0.6082458,0.32547,1.0137482,0.4161682
				c0.402832,0.0906982,0.8083344,0.0827026,1.2164917-0.0266724c0.4081726-0.10672,0.7576447-0.2747803,1.0484314-0.4988708
				c0.2214203-0.1734161,0.4215088-0.3948364,0.6055756-0.6642761c0.184082-0.2694397,0.3148041-0.5842438,0.3974915-0.9390411
				c0.0827026-0.3574829,0.0880432-0.7443085,0.0186768-1.163147c-0.0693512-0.4161682-0.2480927-0.8056641-0.5335388-1.1711426
				c-0.1707458-0.2214203-0.3921661-0.4268341-0.6616058-0.6162567c-0.2667847-0.1894073-0.6055908-0.328125-1.0110779-0.4161682
				c-0.4081726-0.088028-0.8136749-0.0773621-1.219162,0.0266876
				C160.5908203,162.9160919,160.238678,163.0841675,159.9425507,163.3162537z"/>
			<path d="M176.9441376,155.9665985l-0.9843903-0.8643494l-0.0560303,0.0213318
				c0.1387177,0.5869141,0.1493988,1.1524811,0.0373535,1.6993713c-0.1147156,0.5468903-0.3974915,1.077774-0.8536835,1.5979767
				c-0.3628082,0.4134979-0.7816467,0.7336273-1.2565155,0.9630585c-0.4748535,0.2294312-0.9683838,0.3521423-1.4779358,0.3708191
				c-0.5095367,0.0186768-1.0137482-0.0640259-1.5099487-0.2454376c-0.4988708-0.1813965-0.9523773-0.4508514-1.3578796-0.8083191
				c-0.4081726-0.3574829-0.7336273-0.7709808-0.9737244-1.2378387s-0.3841553-0.9550629-0.434845-1.4645996
				c-0.0480194-0.5068665,0.0106659-1.0110779,0.1760712-1.5099487c0.16539-0.5015411,0.4321747-0.9577179,0.7949829-1.3712311
				c0.8403473-0.9603882,1.8994446-1.3738861,3.1692963-1.2485046l0.0079956-0.0453491l-0.9870605-0.8643494l0.8670197-0.9870758
				l5.7036438,5.0100403L176.9441376,155.9665985z M174.3537598,157.4258575
				c0.2427673-0.2747803,0.4214935-0.5922394,0.5362091-0.9497223c0.1173859-0.3574677,0.162735-0.7176208,0.1387329-1.0804291
				c-0.021347-0.3654938-0.1147156-0.7176361-0.2774506-1.0564423c-0.1600647-0.3388062-0.381485-0.6322479-0.6642761-0.8803558
				c-0.2027435-0.1787415-0.4561768-0.3334656-0.7602997-0.4668579c-0.3014679-0.130722-0.6616058-0.2054138-1.0724487-0.21875
				c-0.4134979-0.0133362-0.8109894,0.0720215-1.1924744,0.2534332c-0.3815002,0.184082-0.6936188,0.4134979-0.9363861,0.6882782
				c-0.1840668,0.2107544-0.3414764,0.4668579-0.4695282,0.7656555c-0.1280518,0.2987823-0.2000732,0.6322479-0.2134094,0.9977264
				c-0.0133514,0.3681488,0.0533447,0.749649,0.2000732,1.1444702c0.1467285,0.3974915,0.3921661,0.7469788,0.7416382,1.0537567
				c0.2107544,0.184082,0.4641876,0.3441467,0.7656403,0.4802094c0.2987976,0.1333771,0.6562653,0.2080841,1.0724335,0.2160797
				c0.4161682,0.0106659,0.8136749-0.0720215,1.1924896-0.2534332
				C173.7935333,157.9407349,174.1056519,157.7086334,174.3537598,157.4258575z"/>
			<path d="M176.0877991,146.3040009c-0.3388062,0.4775238-0.456192,0.9790649-0.3494873,1.5072784
				c0.1093903,0.5255432,0.3948364,0.9550629,0.8563538,1.2831879l3.5988007,2.5637054l-0.7603149,1.0697784l-6.1838531-4.4044647
				l0.7603149-1.0697632l0.8536835,0.6109161l0.0453491-0.0186768c-0.130722-0.2534332-0.2107544-0.5415497-0.2454376-0.8643494
				c-0.0320129-0.32547-0.0053253-0.6242523,0.0773773-0.8963623c0.0800323-0.2747803,0.1867371-0.5015411,0.3121185-0.6802826
				l0.1067047-0.1493988l1.1124573,0.7923279L176.0877991,146.3040009z"/>
			<path d="M177.1042023,142.5771484l0.5842438-0.947052l1.0270844,0.6322632l-0.5842438,0.947052l5.4395447,3.3506927
				l-0.6882782,1.1151123l-5.4368744-3.3480225l-0.3388062,0.5468903l-1.0270844-0.6322632l0.3388062-0.5468903
				l-1.4645996-0.9016876l0.6882782-1.1151276L177.1042023,142.5771484z"/>
			<path d="M176.6160126,139.4212036c-0.2000885-0.1093903-0.3334808-0.2747803-0.3975067-0.5015411
				c-0.0666809-0.2240906-0.0453491-0.4375153,0.0640259-0.6375885c0.1093903-0.1974182,0.2774506-0.3308105,0.5015411-0.3975067
				c0.2267609-0.0666962,0.4375153-0.0453491,0.6376038,0.0640259c0.2000732,0.1093903,0.3307953,0.2774506,0.3974915,0.5015411
				c0.0666962,0.2267609,0.0453491,0.4401855-0.0640259,0.6375885c-0.109375,0.2000885-0.2774506,0.3334808-0.5015411,0.3975067
				C177.0268402,139.5519104,176.8160858,139.5305786,176.6160126,139.4212036z M178.4754333,140.2295227l0.6295929-1.1497955
				l6.661377,3.6441498l-0.6295929,1.1497955L178.4754333,140.2295227z"/>
			<path d="M185.3715668,138.4261322c0.3975067,0.1813965,0.7656555,0.1787262,1.1044617-0.0080109
				c0.3414612-0.1867371,0.6082458-0.4988708,0.8083191-0.9363861c0.1920776-0.4214935,0.2534332-0.8243256,0.1867523-1.2058105
				c-0.0666962-0.37883-0.2721252-0.6482697-0.6135864-0.8029938c-0.2561035-0.1147156-0.5175476-0.1173859-0.784317-0.0026703
				c-0.2667847,0.1147156-0.6322632,0.4855194-1.0964508,1.1151123s-0.8056641,1.0350952-1.0217438,1.219162
				c-0.2187653,0.1867523-0.4161835,0.3148041-0.59758,0.3921661c-0.1787415,0.0773621-0.3868256,0.1227112-0.6269226,0.1333923
				c-0.240097,0.0106659-0.5175476-0.05336-0.8270111-0.1947479c-0.3894806-0.1760712-0.6856079-0.434845-0.8883514-0.7709808
				c-0.2027588-0.3361359-0.3094635-0.7389679-0.3201294-1.2111664c-0.0133514-0.4721832,0.1013641-0.9737244,0.3441315-1.5072784
				c0.1600647-0.349472,0.3548126-0.6589355,0.5869141-0.9283752c0.2320862-0.2694397,0.49086-0.4801941,0.7789764-0.6322632
				c0.2854462-0.1547241,0.5949097-0.2347565,0.9283752-0.240097c0.3334808-0.0079956,0.6722717,0.0666962,1.0137482,0.2214203
				l-0.5575562,1.2298431c-0.3574829-0.162735-0.6829529-0.1600647-0.9763947,0.0106659
				c-0.293457,0.1680756-0.5255585,0.4455109-0.6989594,0.8270111c-0.109375,0.240097-0.1680603,0.4801941-0.1787415,0.7256165
				c-0.0106659,0.2454376,0.0293579,0.4588623,0.1200562,0.6376038c0.0906982,0.1813965,0.2294312,0.3121185,0.4108276,0.3948212
				c0.1360626,0.0613556,0.2801208,0.0827026,0.434845,0.0613556c0.1547394-0.0213318,0.3174591-0.1040344,0.4962006-0.2507629
				c0.1760712-0.1440582,0.4668579-0.4988708,0.8750305-1.056427c0.4081573-0.5602264,0.730957-0.9337158,0.9710541-1.1231232
				c0.237442-0.1867523,0.4508514-0.3201294,0.6376038-0.3921661c0.1867371-0.0746918,0.4081573-0.1120453,0.6642609-0.1173859
				c0.2561035-0.002655,0.5495605,0.0693665,0.8750305,0.216095c0.4375,0.2000885,0.7683105,0.4775238,0.9897308,0.8323364
				c0.2240906,0.3548126,0.3361359,0.7816467,0.3414764,1.2778625c0.0053253,0.4962006-0.1253815,1.0404205-0.3921661,1.6299896
				c-0.2747803,0.6029053-0.6029053,1.0644379-0.9817352,1.381897c-0.3788147,0.3174591-0.784317,0.5068665-1.2138214,0.565567
				c-0.4295044,0.0586853-0.8830261-0.0186768-1.3605499-0.2374268L185.3715668,138.4261322z"/>
			<path d="M183.5708313,128.9796143l0.3815002-1.0484238l1.1337891,0.4108353l-0.3788147,1.0484161l6.0051117,2.1715546
				l-0.4481812,1.2324982l-6.0051117-2.1715393l-0.2187653,0.6029053l-1.1337891-0.4108276l0.21875-0.6029205l-1.6139832-0.5842285
				l0.4455109-1.2325134L183.5708313,128.9796143z"/>
		</g>
	</g>
	
		<linearGradient id="SVGID_1_" gradientUnits="userSpaceOnUse" x1="50.5055466" y1="104.2093048" x2="177.2184296" y2="104.2093048">
		<stop  offset="0" style="stop-color:#F4ACA6"/>
		<stop  offset="0.2447027" style="stop-color:#C6766A"/>
		<stop  offset="0.5026486" style="stop-color:#F4ACA6"/>
		<stop  offset="0.7525153" style="stop-color:#C6766A"/>
		<stop  offset="1" style="stop-color:#F4ACA6"/>
	</linearGradient>
	<path class="st0" d="M59.0180244,83.9509125h15.4139748v3.3461304l-3.645256,0.4181442
		c-1.1352386,0.0594254-1.3136826,0.3585434-1.3136826,1.3747711v30.9484711c0,0.9551315,0.1784439,1.3136826,1.3136826,1.3731079
		l3.645256,0.4181442v3.3461304H59.0180244v-3.3461304l3.7031822-0.4181442
		c1.1350746-0.0594254,1.2559242-0.358551,1.2559242-1.3731079V89.0899582c0-1.0162277-0.0612564-1.3153458-1.2559242-1.3747711
		l-3.7031822-0.4181442V83.9509125z M126.1101074,120.0384293l-3.1676865-30.9484711l-0.0594254-0.4792328
		c0-0.5369949,0.2395325-0.7171021,1.194664-0.8955383l3.7046814-0.4181442v-3.3461304h-12.0693436l-11.2315598,31.784584
		l-9.0223389-31.784584H82.4957123v3.3461304l3.6435852,0.4181442c0.8957138,0.1784363,1.1946716,0.4179688,1.1946716,1.4343643
		c0,0.4179764-0.1188507,1.4341965-0.2989578,2.9263229l-3.1661911,24.9749756
		c-0.4774017,3.8236923-0.6576767,4.122818-2.0307846,4.3606873l-3.645256,0.4181442v3.3461304h14.5776978v-3.3461304
		l-3.8237-0.4181442c-0.895546-0.1784439-1.1946716-0.4775696-1.1946716-1.4937897
		c0-0.7766953,0.0594254-1.7316589,0.2397003-2.8668976l3.3461304-28.2600174l10.9920349,36.3849792h3.0470047
		l12.5469131-36.8029556l2.8093033,31.6655731c0.0594254,1.1352386-0.1206818,1.194664-1.3153458,1.3731079l-4.0023117,0.4181442
		v3.3461304h15.8321304v-3.3461304l-3.7048569-0.4181442C126.4075699,121.3521118,126.2885513,121.0529861,126.1101074,120.0384293z
		 M169.059845,113.3460007c0,3.4057236-1.1334076,6.2726212-3.3444672,8.4836807
		c-2.2108917,2.2108917-5.6760406,3.3461304-10.3954468,3.3461304h-20.2539062v-3.3461304l3.7030182-0.4181442
		c1.1352386-0.0594254,1.2559204-0.358551,1.2559204-1.3731079V89.0899582c0-1.0162277-0.0610809-1.3153458-1.2559204-1.3747711
		l-3.7030182-0.4181442v-3.3461304h20.3134918c7.8258514,0,11.5901184,3.3461304,11.5901184,9.5593262
		c0,4.3012695-2.6884613,7.7069931-6.9897156,9.3214645C165.7749634,104.0263672,169.059845,107.66996,169.059845,113.3460007z
		 M145.5210724,102.1740265h8.4835052c4.4813843,0,7.2294312-3.1660233,7.2294312-7.7069855
		c0-4.6003952-2.2108917-6.8708725-7.5285492-6.8708725h-8.1843872V102.1740265z M163.0269165,113.5262756
		c0-5.2580643-2.6290283-7.8276749-9.0223389-7.8276749h-8.4835052v15.831955h9.2006073
		C160.2790375,121.5305557,163.0269165,118.8419342,163.0269165,113.5262756z M177.2184296,104.2093048
		c0,34.9347992-28.4203033,63.3577728-63.3551102,63.3577728s-63.3577728-28.4229736-63.3577728-63.3577728
		S78.9285202,40.851532,113.8633194,40.851532S177.2184296,69.2745056,177.2184296,104.2093048z M174.4911957,104.2093048
		c0-33.4326859-27.1978607-60.6305313-60.6278763-60.6305313c-33.4326859,0-60.6305313,27.1978455-60.6305313,60.6305313
		s27.1978455,60.6305389,60.6305313,60.6305389C147.293335,164.8398438,174.4911957,137.641983,174.4911957,104.2093048z"/>
	<g>
		<path d="M58.0452843,110.4103622c-0.5177078-0.1897354-0.9432564-0.5719147-1.2007561-1.143837
			c-0.2141304-0.4906006-0.2141304-1.1167297,0-1.7143936c0.2574997-0.9242859,0.777916-1.5233078,1.5097542-1.8241806
			c0.1165543-0.0270996,0.2818947-0.0542068,0.4228401-0.0542068h0.1192627
			c0.3767624,0.0271072,0.7318382,0.2981567,0.9432602,0.7074432c0.1897354,0.3821793,0.2114182,0.8727875,0.0460777,1.2793655
			c-0.1165504,0.2737579-0.2818947,0.4079285-0.5177078,0.4079285h-0.04879c-0.2574997,0-0.4472351-0.1883774-0.5177078-0.5163498
			c0-0.0542145,0-0.1084213-0.024395-0.1355286v-0.0813141c-0.0216827-0.1626282-0.0704727-0.2195511-0.1409454-0.2195511
			c-0.024395,0-0.0704727,0.0271072-0.1165543,0.0569229c-0.3306808,0.2710495-0.5448112,0.5990219-0.615284,1.0042419
			c-0.0704727,0.3821793,0.04879,0.680336,0.3550758,0.8456802c0.2818947,0.1355286,0.5664978,0.1897354,0.9188652,0.2168427
			h0.2846031c0.5421028,0,1.0137329-0.0542145,1.460968-0.1897354c1.840435-0.5177078,3.3989792-1.0882721,4.7650833-1.7415085
			c0.1436539-0.0813141,0.306282-0.1355209,0.4499435-0.1355209h0.0921555
			c0.2602081,0.0270996,0.4499435,0.2439423,0.5204163,0.5149918c0.0704727,0.2466583,0,0.4892502-0.2114182,0.681694
			c-0.1192627,0.1084213-0.2602081,0.1626358-0.4255524,0.2439499c-1.9109116,0.8158646-3.350193,1.3335724-4.6946068,1.7157516
			c-0.5177078,0.1355286-1.0842056,0.2439499-1.8404388,0.2710495
			C59.1322021,110.6000977,58.5657043,110.6000977,58.0452843,110.4103622z"/>
		<path d="M66.1388779,111.0093918c-0.2602081-0.1084213-0.3767624-0.3523712-0.4011536-0.7345505
			c0.0487823-0.3821869,0.2114182-0.8185806,0.4255447-1.143837c0.1409454-0.1626358,0.2818985-0.2466583,0.4716339-0.2466583
			c0.0704727,0,0.1409454,0.0298157,0.2602081,0.0569229c0.2358093,0.0813141,0.3767624,0.3252563,0.4011536,0.6532288
			c0,0.1084213-0.0243912,0.2168427-0.0243912,0.2439499c-0.0948715,0.3550797-0.235817,0.6532364-0.4499512,1.0083084
			c-0.1409454,0.1626358-0.306282,0.2439499-0.4472275,0.2439499
			C66.3042145,111.0907059,66.2337418,111.0635986,66.1388779,111.0093918z"/>
		<path d="M95.4278564,93.8016968c-0.0460815,0.2710495-0.235817,0.4878922-0.4716263,0.5149994
			c-0.0460815,0.0271072-0.1165543,0.0271072-0.2114258,0.0271072c-0.0704727,0-0.1409454-0.0271072-0.1653366-0.0271072
			c-0.7535248-0.1626358-1.5802307-0.2439499-2.5234909-0.2439499c-0.7562332,0-1.5341492,0.0542145-2.5018005,0.1355286
			c-0.8775558,0-3.6277924,3.1812057-4.1741943,3.8679047c-1.1085968,1.3877792-2.2415924,2.9409027-3.5155334,4.7650757
			c-1.1546783,1.7157593-2.6888275,3.976326-4.0793228,6.3710632l-0.7562332,1.4148865l-0.0460739,0.1111298
			c-0.1192627,0.1897354-0.2141342,0.3794708-0.3089981,0.5990295c-0.0704803,0.216835-0.0704803,0.2981491-0.0704803,0.3523636
			c0.0243988,0,0.0704803,0.0271072,0.1653442,0.0271072h0.1192627l1.3904953-0.2168427l0.3306808-0.0271072
			c1.1085968-0.1626282,2.0057831-0.2439423,2.8541718-0.2439423c0.235817,0,0.4716263,0,0.7318344,0.0270996
			c0.3062897,0,0.6613693,0.0542145,1.0137329,0.1897354c0.1653442,0.0542145,0.3306808,0.1355286,0.4499435,0.2439499
			c0.1653442,0.138237,0.235817,0.4092865,0.187027,0.680336c-0.0948639,0.2466583-0.3062897,0.4363937-0.5177078,0.4363937
			h-0.0243912c-0.0948715,0-0.235817,0-0.4255524-0.0542068c-0.4472351-0.1084213-0.9188614-0.1897354-1.460968-0.1897354
			c-0.3062897,0-0.6125717,0.0270996-0.9920502,0.0542068c-1.2251511,0.1355286-2.4530106,0.325264-3.4911346,0.4906006
			c-1.8865204,0.325264-3.4206696,0.6261292-4.8111649,1.0056l-0.306282,0.0840302
			c-0.1192627,0.0813141-0.235817,0.1084213-0.3306885,0.1355209c-0.0243912,0-0.0948639,0.0271072-0.1409454,0.0271072
			c-0.1897354,0-0.3550797-0.1084213-0.4743423-0.2737579c-0.1165466-0.1897354-0.1409454-0.4336853-0.0921555-0.6532364
			c0.0704727-0.2439423,0.2574997-0.4065781,0.4716339-0.4906006c0.4228363-0.1355286,0.7535172-0.2168427,1.0598068-0.2981567
			c0.8023148-0.1897354,1.6534119-0.3821869,2.5018005-0.5448151c0.3062897-0.0542068,0.4472351-0.1897354,0.4960251-0.4906006
			c0.0921631-0.4363937,0.2574997-0.870079,0.5664978-1.4419937c0.7996063-1.5260162,1.696785-3.0235748,2.5451736-4.3571472
			c2.0545654-3.2119598,4.0115585-6.0173416,6.0634155-8.632988c0.5421066-0.7074432,1.1790771-1.4148865,1.9597015-2.2334595
			c0.0921555-0.0813141,0.187027-0.2168427,0.3062897-0.3794708v-0.0271072L86.7243958,94.50914h-0.5177078
			c-0.2845993,0.0542145-0.5664978,0.0813141-0.8267059,0.1084213c-3.8155212,0.5575943-4.5440445,0.7962952-4.7894745,0.1355286
			c-0.0948639-0.3523712,0.0704727-0.7074432,0.4011536-0.8429718c0.2846069-0.0813141,0.5664978-0.138237,0.8483963-0.1653442
			c1.0381241-0.1626282,2.1250381-0.3252563,3.1848526-0.4607849c0.9432526-0.1111298,2.0057755-0.2737579,3.0195084-0.3550797
			c1.2522583-0.1084213,2.2659912-0.1897354,2.9978256-0.1897354h0.0921631
			c0.3794708-0.0270996,0.6857529-0.0270996,0.9459686-0.0270996c1.0381241,0,1.7455673,0.0542068,2.4286194,0.216835
			c0.2114182,0.0271072,0.4011536,0.1084213,0.590889,0.1897354C95.335701,93.1999664,95.4766464,93.5008316,95.4278564,93.8016968z
			"/>
		<path d="M84.106041,111.0093918c-0.2602081-0.1084213-0.3767624-0.3523712-0.4011536-0.7345505
			c0.04879-0.3821869,0.2114182-0.8185806,0.4255524-1.143837c0.1409454-0.1626358,0.2818909-0.2466583,0.4716263-0.2466583
			c0.0704727,0,0.1409454,0.0298157,0.2602081,0.0569229c0.235817,0.0813141,0.3767624,0.3252563,0.4011612,0.6532288
			c0,0.1084213-0.0243988,0.2168427-0.0243988,0.2439499c-0.0948639,0.3550797-0.235817,0.6532364-0.4499435,1.0083084
			c-0.1409454,0.1626358-0.3062897,0.2439499-0.4472351,0.2439499
			C84.2713852,111.0907059,84.2009125,111.0635986,84.106041,111.0093918z"/>
		<path d="M118.1216278,92.7933884l-0.0460815,0.1626282l0.0243988-0.0271072l-0.2846069,0.8429718
			c-0.2602081,0.7372589-0.5664978,1.4718094-0.9188614,2.3988037c-1.7943649,4.4642181-3.3976288,9.0666656-4.7637329,12.9603195
			c-0.7562332,2.2063599-1.3444138,4.0034256-1.86483,5.6649704c-0.3523636,1.2522583-0.5881805,2.2036438-0.8023148,3.1577454
			c-0.0216827,0.2168427-0.0704727,0.4092865-0.1653366,0.5990295c-0.0704727,0.216835-0.2114182,0.3821793-0.4011536,0.4092865
			c-0.0921631,0-0.1653442,0-0.2574997-0.0542145c-0.235817-0.0813141-0.4011612-0.355072-0.4011612-0.680336l0.0704727-0.5448151
			l0.0216904-0.1111298c0.1897354-0.9242859,0.4499435-1.9325943,0.8754959-3.2661667
			c1.0137253-3.3773041,2.1684036-6.6448212,3.3474808-9.9652023c1.2522583-3.5670319,2.5004501-6.8630219,3.7987823-10.0505829
			c0.0704727-0.2168427,0.1626282-0.4336853,0.235817-0.6261292c0-0.0542068,0-0.1084213-0.0243988-0.1355209
			c0-0.0271072-0.0243912-0.0271072-0.0243912-0.0271072c-0.0460815,0-0.0948715,0.0271072-0.1165543,0.0542068
			l-0.3062897,0.3008652c-0.4011536,0.3523712-0.8267059,0.7345505-1.2278595,1.143837
			c-2.4760513,2.4232025-4.9995422,5.3370056-7.9485779,9.1479874c-0.5421066,0.7643585-1.1085968,1.4718018-1.6290207,2.1792526
			c-0.6342621,0.8158646-1.2712326,1.6886444-1.9325943,2.5031586c-0.2602081,0.355072-0.590889,0.7372589-1.0869141,1.2820663
			c-0.2114182,0.2439499-0.3984451,0.4065781-0.6342621,0.5719223c-0.0731812,0.0542068-0.1653442,0.0813141-0.3306808,0.1355209
			c-0.235817,0.0271072-0.4499435,0-0.6369705-0.1626282c-0.1653442-0.1653366-0.3062897-0.4363937-0.3306808-0.7643661
			c-0.0243988-0.2710495,0-0.5448074,0.0704727-0.8700714v-0.0542145c0.1165466-0.5990219,0.2358093-1.2536087,0.4011536-1.8526306
			c0.4011536-1.6588364,0.8267059-3.2932739,1.2495499-4.9277115c0.5204163-2.0708313,1.0625153-4.1660614,1.6046219-6.2639999
			l0.1653366-0.6261292c0.3306885-1.3877792,0.7074509-2.7782745,0.967659-4.2202682
			c0.0460739-0.2195511,0.0704727-0.4634933,0.0948639-0.680336v-0.0271072
			c-0.04879-0.0542068-0.0243912-0.0542068-0.0948639-0.0270996h-0.0243988
			c-0.2114182,0.1897354-0.4011536,0.3523636-0.590889,0.5719147c-0.729126,0.8429718-1.4853592,1.7970734-2.3581467,2.9951172
			c-3.8435059,5.3098907-7.0283585,10.0749741-9.7903748,14.6489639c-1.5314407,2.5045166-2.8297729,4.9006119-3.9139786,7.2695999
			l-0.1897354,0.4363937l-0.1409454,0.3279724c-0.0948715,0.216835-0.1409531,0.4363861-0.1409531,0.7074432
			c0.0216904,0.5448074-0.2602081,0.9812012-0.7318344,1.0896225c-0.3550797,0.0542145-0.6152878-0.1626282-0.7074432-0.5177078
			c-0.04879-0.2168427-0.0243988-0.4634933,0.0704727-0.7345505c0.1409454-0.355072,0.2818909-0.7914658,0.4472351-1.1709366
			c0.777916-1.7699661,1.6750946-3.5670395,2.9490356-5.800499c1.3444138-2.4218445,2.9246445-4.9561768,4.9060287-7.9783936
			c2.2415924-3.4315109,4.293457-6.3724213,6.2531509-9.0422745c0.6830521-0.9513855,1.509758-2.0410156,2.3825455-3.0222244
			c0.3062897-0.3523636,0.6125717-0.680336,0.9432602-1.0083084c0.1653366-0.1626282,0.3767624-0.2981567,0.5881805-0.4336777
			c0.0948639-0.0542145,0.2141266-0.1084213,0.3306808-0.1084213c0.4960251-0.138237,0.9215775,0.2439423,1.0381241,0.9242859
			c0.0243988,0.1897354,0.0243988,0.4092865,0.0243988,0.5719147c-0.04879,0.5719147-0.1409454,1.1709442-0.3062897,1.9325943
			c-0.3794708,1.8810959-0.8727875,3.7323761-1.3444138,5.5294495c-0.0948715,0.4092865-0.1897354,0.8429642-0.3089981,1.2522583
			l-2.2632828,8.849823c-0.0704727,0.2466583-0.1192627,0.5163498-0.1897354,0.7630081v0.0542068
			c-0.0460739,0.189743-0.0216827,0.2168427,0,0.2439499c0.0704727,0,0.0948715-0.0271072,0.1653442-0.0813141l0.0243912-0.0271072
			c0.2114258-0.2439423,0.3767624-0.4634933,0.5421066-0.6789856l0.0243912-0.0270996l3.0655899-4.0305328
			c2.5722809-3.3773041,4.9792175-6.2368927,7.3834381-8.7143021c0.9920502-1.0354156,1.9095612-1.9054871,2.7606583-2.6698532
			l0.729126-0.5719223l0.2846069-0.216835c0.187027-0.1084213,0.3306808-0.189743,0.4960251-0.2195587
			c0.0460739,0,0.0704727-0.0270996,0.2114182-0.0270996c0.3306808-0.0271072,0.5881805,0.1924438,0.7074432,0.5990219
			C118.1921005,92.2756805,118.1921005,92.54673,118.1216278,92.7933884z"/>
		<path d="M114.4407501,111.0093918c-0.6509094-0.2726364-0.3619308-1.2878265,0.0243912-1.8783875
			c0.1409454-0.1626358,0.2818985-0.2466583,0.4716339-0.2466583c0.0704727,0,0.1409454,0.0298157,0.2602081,0.0569229
			c0.235817,0.0813141,0.3767624,0.3252563,0.4011536,0.6532288c0,0.1084213-0.0243912,0.2168427-0.0243912,0.2439499
			c-0.0948715,0.3550797-0.235817,0.6532364-0.4499512,1.0083084c-0.1409454,0.1626358-0.306282,0.2439499-0.4472275,0.2439499
			C114.6060867,111.0907059,114.535614,111.0635986,114.4407501,111.0093918z"/>
		<path d="M149.6394653,96.2791061c-0.2141266,0.7616501-0.6152802,1.5233078-1.2278595,2.3147812
			c-0.5664978,0.7074432-1.2495422,1.3877792-2.0979309,2.0139084c-1.1817932,0.8998871-2.5261993,1.7157516-4.2012939,2.4801178
			l-4.1497955,1.7699661l-0.189743,0.1084213c-0.355072,0.1355209-0.731842,0.2981567-1.1085968,0.4634933
			c-0.0948639,0.0542145-0.2358093,0.1626358-0.4011536,0.2710571c-0.0243988,0-0.0460815,0.0542068-0.0243988,0.1084213
			c0,0.0270996,0,0.0270996,0.0243988,0.0542068c0.1653442,0.0542068,0.355072,0.0542068,0.5664978,0.0542068
			c0.9432526,0.0271072,1.8865204,0.1653442,2.9707184,0.4092941c0.6369629,0.1897354,1.2278595,0.4363861,1.7238922,0.7616501
			c0.4472351,0.2466583,0.7535095,0.5177078,0.9893341,0.818573c0.7074432,0.8145142,0.9432526,1.7957153,0.6613617,2.9666595
			c-0.1653442,0.6261292-0.4472351,1.1980438-0.8971863,1.7970734c-0.4933014,0.7074432-1.1085968,1.360672-1.9109039,1.9868011
			c-1.6506958,1.3633881-3.4423523,2.2605667-5.3532562,2.7240677c-0.6857605,0.1626282-1.3932037,0.2466583-2.0762634,0.2466583
			c-0.542099,0-1.1329956-0.0840302-1.7211761-0.2195511c-0.5908813-0.1355286-1.1573792-0.4092941-1.6534119-0.8429718
			c-0.2818909-0.2195511-0.4472351-0.4092865-0.5881805-0.6261292c-0.6152802-0.8998871-0.6369629-1.9895172-0.0487823-2.9409103
			c0.2358093-0.3821793,0.5664978-0.7101517,1.0625153-1.1167297c0.5664978-0.4363937,1.2495422-0.7914658,2.2415924-1.1167297
			l0.0948639-0.0271072c0.0921631-0.0542068,0.187027-0.0813141,0.2575073-0.0813141
			c0.3306732-0.1111298,0.3306732-0.138237,0.3306732-0.7372589c0.0243988-0.3794708,0.1192627-0.7074432,0.3306885-1.1980438
			l0.2114258-0.4906082l0.2358093-0.4865341c0.0487976-0.138237,0.0487976-0.1653442,0-0.2195511
			c0,0-0.0704651-0.0271072-0.1165466-0.0271072h-0.0487976c-0.1409454,0-0.2818909,0.0271072-0.4228363,0.0542145
			l-0.0948639,0.0270996l0.0243835-0.0270996c-0.0948639,0.0542068-0.165329,0.0542068-0.2141266,0.0813141
			c-0.1165466,0.0271072-0.2818909,0.0542068-0.4228363,0.0542068h-0.0704803c-0.2602081,0-0.4716187-0.1626282-0.5664978-0.4065781
			c-0.0704651-0.355072,0.021698-0.6261215,0.2819061-0.818573c0.2796021-0.2150803,1.5235748-0.8824844,2.9734344-1.6886444
			c0.2818909-0.1355286,0.4716187-0.325264,0.6830444-0.7074509c0.7562256-1.2251511,1.5802307-2.5316162,2.4530182-3.8109741
			c0.3062744-0.4363937,0.6857605-0.9812088,1.1085968-1.4718094c0.2141266-0.1897354,0.4499359-0.4092941,0.7806244-0.5448151
			c0,0,0.0460815-0.0271072,0.1409454-0.0271072c0.187027,0,0.3523712,0.0813141,0.4716339,0.2466583
			c0.0948639,0.1355286,0.1409454,0.3523636,0.1165466,0.542099c0,0.1924515-0.0948639,0.3821869-0.2574921,0.463501
			c-0.4499512,0.2466583-0.731842,0.6532364-1.0381317,1.1167297l-0.0487823,0.0813141
			c-0.4472351,0.6261292-0.8971863,1.3091812-1.3200226,1.9624176l-0.3306885,0.4906006l-0.1897278,0.325264v0.0270996
			c0,0.0271072,0.0243835,0.0271072,0.0243835,0.0271072h0.0243988c0.1165466,0,0.2114258-0.0271072,0.3306885-0.0542068
			l0.4716187-0.189743c1.5802307-0.680336,3.1848602-1.3362808,4.7406921-2.1792526
			c1.3444214-0.7345428,2.358139-1.4419861,3.2309265-2.2063522c0.4960327-0.4363937,0.9432678-0.9242859,1.3227386-1.4419937
			c0.3523712-0.4906006,0.6125793-1.0083084,0.8023071-1.4989166c0.3523712-1.1167297,0.187027-2.0681229-0.4716339-2.9680099
			c-0.3794708-0.4906006-0.8267059-0.8971786-1.3688049-1.1980438c-0.6857605-0.4363937-1.4148865-0.7345505-2.1955109-0.9541016
			c-1.3905029-0.4065781-2.7593079-0.5990219-4.103714-0.5990219c-0.1165619,0-0.3062897,0.0270996-0.4716339,0.0270996
			c-3.8462219,0.0271072-7.5243835,0.9541016-10.8989716,2.7511749c-1.1546783,0.6261292-2.1223297,1.3064651-2.9951172,2.0979385
			c-0.7074432,0.6532288-1.2495499,1.2793579-1.6507034,1.9596939c-0.2141266,0.3550797-0.4011536,0.7345505-0.5204163,1.0625229
			c-0.4011612,1.1167297-0.3306808,2.2063599,0.2358093,3.2390671c0.3767624,0.7643661,0.967659,1.4718094,1.7943649,2.1521454
			c0.6369705,0.5448151,1.3444138,0.9541016,2.2632751,1.3335724c0.189743,0.0840225,0.355072,0.138237,0.5204163,0.1924438
			v0.0271072l0.6125793,0.2439499c0.3062897,0.1382294,0.542099,0.3008652,0.7779236,0.5448074
			c0.1192627,0.1355286,0.1897278,0.3008728,0.1897278,0.463501s-0.0704651,0.3279724-0.1897278,0.4634933
			c-0.0948792,0.1084213-0.2114258,0.1626358-0.3306885,0.1626358h-0.0460815c-0.1409454,0-0.2141266,0-0.3062897-0.0542145
			c-0.4716187-0.2981567-0.9676514-0.5177078-1.4880676-0.7074432c-0.4228363-0.1924438-0.8483887-0.355072-1.2495499-0.5719147
			c-1.2983322-0.7345505-2.3120651-1.607338-3.1143723-2.7240677c-0.235817-0.3821793-0.4716339-0.7616501-0.6369705-1.1709442
			c-0.5664978-1.2793579-0.6125793-2.6671448-0.1165543-4.0576324c0.2602081-0.788765,0.6830444-1.5531235,1.3444138-2.368988
			c0.7535248-0.9269943,1.6507034-1.7428589,2.783699-2.5316238c1.5097504-1.0354156,3.184845-1.8539886,5.2123108-2.5614319
			c1.6046295-0.5177078,3.2553253-0.8971786,4.8599548-1.1167297c0.9676514-0.1084213,1.9813843-0.2439499,3.0682983-0.2439499
			c0.2358093,0,0.4472351,0.0271072,0.6125793,0.0271072c2.2632751,0.1084213,3.9383698,0.4634933,5.4020538,1.1167297
			c0.8239899,0.325264,1.5097504,0.7345505,2.1684113,1.3064651c0.3794708,0.3550797,0.6613617,0.6532364,0.897171,1.0354156
			C149.8969727,93.5008316,150.0867004,94.7801895,149.6394653,96.2791061z M135.886322,107.2539749
			c-0.0948639,0-0.1192627,0-0.165329,0.0270996h-0.1192627c-0.2114258,0.0271072-0.37677,0.1355286-0.4716339,0.3523712
			c-0.3306885,0.6247711-0.6369781,1.1966934-0.8727875,1.7957153l-0.1409454,0.5177078
			c-0.0243988,0.0813141,0,0.1653366,0.0243988,0.2195511c0.0460663,0.0542068,0.0948639,0.0813141,0.1409454,0.0813141
			c0.1897278-0.0271072,0.3306732-0.0271072,0.4255524-0.0542068c0.5158844,0,2.1072998-0.2466583,2.8297729-0.2466583
			c0.5664978,0,1.1546783,0.0542068,1.7699585,0.138237c0.4228363,0.0542068,0.7779236,0.1897354,1.1085968,0.3523636
			c0.4960327,0.3279724,0.7074432,0.7616577,0.6369781,1.3335724v-0.0271072l-0.0243988,0.1653442
			c-0.4097595,1.2608109-1.5016632,1.4494095-1.6046143,1.4962006h-0.1165619c-0.2602081,0-0.4960175-0.1897354-0.5664978-0.4634933
			c-0.0948639-0.325264,0.0460815-0.6532364,0.3306885-0.788765c0.208252-0.1837463,1.6949158-0.4897079-0.8023071-0.7887573
			c-0.1903076-0.022789-0.37677-0.0270996-0.5908966-0.0270996c-1.273941,0-2.5939636,0.1626282-4.1281128,0.4906006
			c-0.9893341,0.1897354-1.7916565,0.4607849-2.4774017,0.8971786c-0.2819061,0.1897354-0.6369781,0.4092865-0.918869,0.7074432
			c-0.3306885,0.3821793-0.4960327,0.7643661-0.4716339,1.0625229c0.0243988,0.3279724,0.2114258,0.680336,0.5881805,0.9812012
			c0.3550873,0.325264,0.7806244,0.5177078,1.3932037,0.6532364c0.4011536,0.0813141,0.8023071,0.1355286,1.2251587,0.1355286
			c0.4255524,0,0.7806244-0.0271072,1.1329956-0.1084213c1.81604-0.2710495,3.6274414-0.9937057,5.3242188-2.2459641
			c1.8708801-1.2746353,2.2266846-2.1828537,2.6744995-3.3647995c0.2114258-0.680336,0.0921631-1.2793655-0.4255524-1.7428589
			c-0.1409454-0.1626282-0.3062897-0.325264-0.5664978-0.4607849c-0.2818909-0.2195511-0.6125793-0.3808289-1.1546783-0.5434647
			C138.550766,107.3623962,137.2063446,107.2810745,135.886322,107.2539749z"/>
		<path d="M145.9098053,111.2831497c-0.4472351-0.1111298-0.731842-0.4906006-0.7779236-1.0354156
			c-0.0460663-0.3279724,0-0.680336,0.1653442-1.1709442c0.2602081-0.6532288,0.5664978-1.223793,0.9432678-1.7415009
			c0.0460663-0.0813141,0.0948639-0.1355286,0.1897278-0.2466583l0.1165466-0.1355286
			c0.0948792-0.1355209,0.1192627-0.216835,0.0704803-0.3794708c-0.187027-0.8727798,0.0948639-1.5531235,0.8511047-2.1521454
			c0.4472351-0.3550797,0.9188538-0.5448151,1.4148865-0.5448151h0.1409454
			c0.6125793,0.0542145,1.084198,0.4363937,1.3200226,1.0896301c0.336441,0.7617722,0.1251068,1.7618637,0.2141266,1.9597015
			c0.3361206,0.2585602,2.5249786-0.114151,3.1116638-0.2439499c1.2983398-0.3008652,1.4895935,0.5579224,0.4731598,1.1840515
			c-0.5664978,0.1897354-0.6845703,0.2836914-1.3459473,0.3650055c-0.6830444,0.1111374-1.2956238,0.1653442-1.8865051,0.1653442
			c-0.1409454,0-0.2818909,0-0.4472351-0.0271072h-0.0487976c-0.2818909,0-0.4716187,0.1084213-0.6586456,0.4336853
			c-0.4255524,0.7372589-1.016449,1.3633881-1.7238922,1.8810959c-0.542099,0.3794708-1.0137329,0.5719147-1.4853668,0.6261292
			c-0.0704651,0-0.1409454,0.0271072-0.2358093,0.0271072C146.1944122,111.3373642,146.0507507,111.310257,145.9098053,111.2831497z
			 M146.5007019,109.9468689c0.8023071-0.2439499,1.4853516-0.7616577,2.0274506-1.550415
			c0.0243988-0.0271072,0.0487976-0.1111298,0.0243988-0.1653442c0-0.0542068-0.0243988-0.0813141-0.0704651-0.1084137
			l-0.37677-0.1612778c-0.1192627-0.0542145-0.1897278-0.1084213-0.2602081-0.1355286l-0.1897278-0.0542068
			c-0.0948792,0-0.1653442,0.0542068-0.2602081,0.1355209c-0.4228516,0.4892502-0.7779236,1.0611649-1.0137329,1.7415085
			c-0.0243988,0.0542068-0.0243988,0.0813141-0.0243988,0.1626282s0.0487823,0.1084213,0.1192627,0.1355286H146.5007019z
			 M147.4195557,103.5758057c-0.3306732-0.1355209-0.4960175-0.4065781-0.4960175-0.8158646
			c0.0704651-0.4363937,0.2141266-0.8158646,0.4255524-1.0896225c0.1192627-0.1626358,0.2818909-0.2710571,0.4472351-0.2710571
			c0.0948639,0,0.1653442,0.0271072,0.2846069,0.0542145c0.1608887,0.055481,0.496582,0.364624,0.3767548,0.8971786
			c-0.0948639,0.4092865-0.2602081,0.7372589-0.4716339,1.0083084c-0.1192627,0.1355286-0.2818909,0.2439499-0.4255524,0.2439499
			C147.490036,103.6029129,147.4439545,103.5758057,147.4195557,103.5758057z M149.3548737,106.0559235v-0.138237
			l-0.0704803-0.3252563c-0.0704803-0.2195511-0.2141266-0.3550797-0.3794708-0.3550797h-0.0460815
			c-0.4011536,0.0542145-0.7535248,0.2466583-0.9920502,0.5719223c-0.0704651,0.0813141-0.0921478,0.1626282-0.0921478,0.2466507
			c0.0216827,0.0813217,0.0704651,0.1626358,0.1165466,0.2168427c0.2141266,0.2168427,0.4499512,0.3279724,0.7074432,0.4363937
			c0.2846069,0.1084213,0.4011536,0.1355286,0.4960175,0.1355286
			C149.2843933,106.8446884,149.3304749,106.7362671,149.3548737,106.0559235z M149.8725739,103.4944916
			c-0.3306885-0.1355286-0.4960175-0.4065781-0.4960175-0.8158646c0.0731812-0.4363937,0.2141266-0.818573,0.4255371-1.0896301
			c0.1192627-0.1626282,0.2846069-0.2737579,0.4499512-0.2737579c0.0921631,0,0.1626282,0.0271072,0.2818909,0.0569229
			c0.6502075,0.224205,0.3729401,1.2997437-0.0948639,1.9054871c-0.1165466,0.1355286-0.2818909,0.2439499-0.4255524,0.2439499
			C149.9430542,103.5215988,149.8969727,103.4944916,149.8725739,103.4944916z"/>
		<path d="M166.0570526,107.7716827c-0.0948792,0.0813141-0.2114258,0.1897354-0.37677,0.2439423
			c-1.5097504,0.7874069-3.019516,1.6330872-4.458786,2.476059c-0.3523712,0.1924438-0.7074432,0.4092865-1.0842133,0.5990219
			c-0.2358093,0.138237-0.4960175,0.2466583-0.731842,0.355072c-0.1165466,0.0813217-0.2602081,0.1084213-0.3062744,0.1355286
			l-0.2846069,0.1084213v-0.0271072c-0.1165619,0.0542145-0.2358246,0.0813141-0.3062897,0.0813141
			c-0.2358093,0-0.4472351-0.1084213-0.5664978-0.2981567c-0.1409454-0.1897354-0.187027-0.4906006-0.1409454-0.8456802
			c0.0243988-0.216835,0.1192627-0.4336777,0.1897278-0.6261215c0.0243988-0.0813217,0.0704803-0.189743,0.0948792-0.2168427
			c0-0.0813141,0.0460663-0.1897354,0.0921478-0.2710571l0.1436615-0.4634933c0-0.0271072,0-0.0271072-0.0487823-0.138237
			h-0.1165619c-0.1653442,0.0569229-0.355072,0.1111298-0.542099,0.1924438
			c-0.7806244,0.2168427-1.5097504,0.5719223-2.2659912,0.8971863l-0.3062897,0.1382294
			c-0.3306732,0.1626358-0.6369629,0.2710571-0.9432526,0.3794785c-0.1192627,0.0270996-0.2602081,0.0542068-0.4255524,0.0542068
			h-0.0948639c-0.2575073,0-0.5421143-0.1355286-0.7074432-0.3794708c-0.1409454-0.1924438-0.187027-0.463501-0.1653442-0.7914734
			c0.0704651-0.4065781,0.1436615-0.7074432,0.2602081-0.9513855c0.1192627-0.3279724,0.2846069-0.6518784,0.4255524-0.9527435
			c0.0704651-0.0813217,0.0948639-0.1626358,0.1409454-0.2439499v-0.0271072l0.1165466-0.1924438
			c1.1473694-1.9669113,2.4340973-4.0062332,4.9087372-6.8630219c0.6586609-0.7616501,1.3905029-1.4148865,2.1928101-2.0139084
			c0.4255524-0.3279724,0.7779236-0.5448151,1.1329956-0.6532364c0.1653442-0.0813141,0.3062897-0.1084213,0.4472351-0.1084213
			c0.6613617,0,1.0625153,0.5990295,1.0625153,1.550415c0,0.2466583-0.1192627,0.6261292-0.2846069,0.9541016
			c-0.2114105,0.4363937-0.4716187,0.8158646-0.7779083,1.1709442c-0.542099,0.7345505-1.1329956,1.3877792-1.81604,1.9868011
			c-1.2251587,1.0625229-2.287674,1.9353104-3.3258057,2.6698608c-0.6369629,0.4906006-1.1573944,0.8158646-1.6750946,1.0625153
			c-0.3306885,0.1626358-0.542099,0.4092941-0.7074432,0.7345505l-0.2358093,0.4092865
			c-0.189743,0.3239059-0.3550873,0.6247787-0.4472351,0.9500351v0.1111298
			c0.0216827,0.0271072,0.0460663,0.0271072,0.0704651,0.0271072h0.0460815
			c0.0460815-0.0271072,0.1192627-0.0271072,0.1192627-0.0271072c0.1626282-0.0840225,0.3279724-0.1382294,0.5177002-0.2195511
			c0.7562408-0.3523636,1.5341492-0.7060852,2.3120728-0.9771347c0.3767548-0.138237,0.6830444-0.2195511,0.9893341-0.3008652
			c0.1436615-0.0271072,0.2846069-0.0542145,0.4255524-0.0542145c0.189743,0,0.355072,0.0271072,0.4716339,0.1084213
			c0.4255524,0.1626282,0.6125793,0.463501,0.6125793,0.9798508c0,0.2439423-0.0460815,0.5177078-0.1626434,0.8429718
			c-0.0731812,0.1382294-0.0948639,0.3279724-0.1192627,0.4906006c0,0.0271072,0,0.0271072-0.0243835,0.0542068h0.0704651
			l0.0243988,0.0271072c0.0704803,0,0.1192627-0.0271072,0.2114258-0.0813141l0.0243835-0.0271072l0.5204163-0.2710495h-0.0243835
			c0.3767548-0.2195511,0.7535248-0.4092865,1.084198-0.6261292c1.016449-0.6017303,2.0518646-1.1424789,3.0439148-1.6601868
			c0.2818909-0.138237,0.5664978-0.3008728,0.8727722-0.4363937l0.3550873-0.1897354l0.6761169-0.3278732
			c0.189743,0-0.1584167,0.4633942-0.0635376,0.6531296C166.2928619,107.2268677,166.2467804,107.6063385,166.0570526,107.7716827z
			 M157.0933838,104.0393066l-0.0243988,0.0270996c0,0,0.0243988,0.0271072,0.0487976,0.0542145l0.2602081-0.1355286
			c1.0597992-0.8700714,1.9813843-1.6073303,2.8541565-2.4503021c0.6125793-0.5719147,1.1546783-1.2251511,1.6019135-1.9054871
			l0.2602234-0.4906082v0.0271072l0.0487823-0.1653442v-0.0542068v-0.0813141l-0.0731812-0.0542145
			c0,0.0271072,0.0243988,0.0542145,0.0487823,0.0542145h-0.0243835c-0.1165619,0-0.187027,0.0271072-0.3062897,0.1084213
			l-0.0243988,0.0569153c-0.3523712,0.1897354-0.729126,0.4878922-1.2251587,0.9513931
			c-1.2983246,1.143837-2.3364563,2.5614319-3.374588,3.9221115L157.0933838,104.0393066z M162.2840118,98.9733582
			l-0.0948639-0.0813141l-0.0243988,0.0270996l0.0704803,0.0542145H162.2840118z"/>
		<path d="M182.7592468,106.8988647c-0.0948944-0.2438965-0.2819214-0.3550262-0.5177612-0.3550262h-0.0243683
			c-0.2114105,0-0.4011688,0.1382294-0.5204163,0.2195282l-0.0460815,0.0270996h-0.0243683l-0.7779541,0.5176849
			c-0.5420685,0.3524246-1.108551,0.7074509-1.6750488,1.0611801c-0.4011688,0.2710571-0.8023224,0.5150223-1.273941,0.7616501
			c-0.187027,0.1355591-0.3768005,0.1897583-0.5881958,0.2981567h-0.1192627c-0.0460663,0-0.0704956,0-0.0948792-0.0270996
			c-0.021698-0.0541992-0.021698-0.1083984,0-0.2167969l0.143631-0.5719528
			c0.021698-0.1083984,0.0705109-0.2710571,0.0921478-0.4092865c0,0,0.0244293-0.0541992,0.0244293-0.1083984
			c0.0704498-0.2425995,0.1192627-0.4621887,0.1409607-0.6789856c0-0.3821945-0.0948792-0.6803513-0.2575378-0.9269791
			c-0.165329-0.1897583-0.4011078-0.2981644-0.6613159-0.2981644c-0.1193085,0-0.1897583,0.0270996-0.2358398,0.0270996
			c-0.3550873,0.1084061-0.6613617,0.2168045-0.9215698,0.3821945c-0.4011688,0.2438965-0.7996063,0.4607544-1.2251434,0.7073822
			h0.0243683l-1.0625305,0.5719528c-0.2357788,0.135498-0.4959869,0.2696991-0.7779083,0.4051971h-0.0487976
			c-0.0704498,0-0.0921478-0.0270996-0.0921478-0.135498c0-0.4020844,0.0460663-0.8136368,0.0460663-0.8144836
			c0-0.7074509-0.330658-1.116745-0.8971405-1.116745c-0.1165924,0-0.1870422,0-0.2602081,0.0270996
			c-0.3279877,0.0813065-0.5638275,0.1626053-0.7996063,0.2981644l-0.8727722,0.4905853l-0.9460144,0.5176926l-1.2955933,0.7331848
			c0,0-0.8267059,0.3821869-0.9432831,0.3821869c-0.1047363,0.0152893-0.118988-0.1238708,0-0.4905853
			c0.2358398-0.4892273,0.4472351-0.8687515,0.7074432-1.2508774c0.0217133,0,0.0217133-0.0271606,0.0217133-0.0271606
			l0.1436157-0.1625977c0.1409607-0.2737885,0.1165924-0.5176926-0.0243683-0.7345505
			c-0.0704498-0.1924286-0.2114105-0.2737885-0.4255371-0.2737885h-0.1409607
			c-0.1897583,0.0542603-0.330658,0.1355591-0.4472351,0.3279877c-0.496048,0.6532516-0.8727875,1.3336029-1.1086121,2.0125885
			c-0.0948181,0.300827-0.1192627,0.6260834-0.0948181,0.9811707c0.193222,1.6431274,1.6764374,0.9713135,2.6643982,0.5448532
			l1.6534119-0.9270401c0.2819061-0.135498,0.5176849-0.2710571,0.7778931-0.4363861l0.1165924-0.0812988l0.6369324-0.3238983
			c0.2770538-0.1538391,0.2807617,0.1558456,0.1897583,0.4593964c0,0.1111298-0.0243683,0.2195892-0.0243683,0.3550873
			c-0.0244293,0.3550873,0.0487366,0.6532516,0.2357788,0.8727798c0.1409607,0.2168579,0.4255371,0.3252563,0.7318115,0.3252563
			c0.2602081,0,0.5177612-0.0812988,0.826767-0.2167969c0.3279266-0.16539,0.6586456-0.3279877,1.0841827-0.5719528
			l1.6994781-0.9811707c0.1409607-0.0800018,0.3279877-0.1613007,0.5421295-0.2425995h0.021698
			c0.0243683,0,0.0487518,0.0270996,0.0487518,0.0270996c0.0244293,0.0270996,0.0460663,0.0541992,0.0244293,0.135498
			l-0.0948792,0.3537292c-0.0244446,0.1626587-0.0948792,0.3794556-0.1192627,0.5421219
			c-0.0244293,0.1653214-0.0705109,0.2737274-0.0948792,0.4363861c-0.0460663,0.2737885-0.021698,0.5718918,0.0948792,0.8998795
			c0.1409607,0.4363861,0.4716187,0.6803513,0.8267059,0.6803513h0.1165314c0.2358246,0,0.4255371-0.0271072,0.6152954-0.0813065
			c0.4228668-0.1924896,0.9432831-0.3821869,1.4365997-0.6803436c1.0381012-0.6532516,2.0762177-1.3362656,3.0682373-1.9895172
			l0.3768005-0.2696991c0.1192474-0.0812988,0.2358398-0.1924286,0.3062744-0.2737885
			C182.8296814,107.3624191,182.8784943,107.1157303,182.7592468,106.8988647z"/>
		<path d="M192.2893982,107.4437103c-0.0948792,0.0813141-0.2141418,0.1897354-0.4255524,0.2710495
			c-0.5177155,0.1924438-1.0381317,0.3537216-1.5341492,0.5705643c-1.1086121,0.4363937-2.2388916,0.8998871-3.4206696,1.2007523
			c-0.918869,0.2439499-1.6723938,0.3794785-2.3337555,0.4607925h-0.4255524c-0.4716339,0-0.9676514-0.0813141-1.4392853-0.2168427
			c-0.6125641-0.2439499-1.0597992-0.6532364-1.3200226-1.2251511c-0.2114105-0.5705643-0.2114105-1.2509003,0.0243988-1.9312439
			c0.3306885-0.8998871,0.8727875-1.6615448,1.5802307-2.2334595c0.3062897-0.2466583,0.5881805-0.3550797,0.9432526-0.3550797
			c0.1165619,0,0.2114258,0,0.2819061,0.0271072c0.4960175,0.0813141,0.8510895,0.5177078,0.9215698,1.0896225
			c0.0460815,0.3821869,0,0.7345505-0.1409454,1.0625229c-0.3794708,0.8971786-0.9459686,1.4419937-1.7699738,1.688652
			c-0.1192627,0.0542068-0.2358093,0.0813141-0.3306732,0.0813141s-0.189743-0.0271072-0.2602081-0.0271072h-0.0460815
			c-0.0243988,0-0.0487976,0-0.0487976,0.0542145c0,0.0271072,0.0243988,0.0542068,0.0731964,0.1341705
			c0.1165466,0.1355209,0.2818909,0.2466583,0.5177002,0.3008652c1.0054016,0.4448624,2.6805573-0.0119934,3.7974243-0.3279724
			c0.9676666-0.2696991,1.9109192-0.6247711,3.019516-1.0611649c0.4499512-0.1897354,0.9215698-0.3794708,1.3932037-0.5448151
			l0.2114258-0.1084213l0.2358093-0.0813141h0.0948639c0.2358246,0,0.4716339,0.1626282,0.5421143,0.3821869
			C192.5252075,106.9260025,192.4764099,107.2539749,192.2893982,107.4437103z M182.8757782,106.4353943
			c0.0487976,0.0542145,0.0704803,0.0542145,0.0948639,0.0542145h0.0243988
			c0.4472351-0.1084213,0.7535248-0.4336853,0.918869-0.9242859v-0.0813141l-0.0460815-0.1111298
			c-0.0243988,0-0.0243988,0-0.0704803,0.0270996c-0.4255371,0.1924515-0.6613617,0.5719223-0.9215698,1.008316V106.4353943z"/>
		<path d="M61.8698196,96.2791061c-0.2141304,0.7616501-0.6152878,1.5233078-1.2278633,2.3147812
			c-0.5664978,0.7074432-1.2495461,1.3877792-2.0979385,2.0139084c-1.1817818,0.8998871-2.5261955,1.7157516-4.2012939,2.4801178
			l-4.1497955,1.7699661l-0.1897354,0.1084213c-0.3550758,0.1355209-0.7318382,0.2981567-1.1086006,0.4634933
			c-0.0948677,0.0542145-0.2358131,0.1626358-0.4011536,0.2710571c-0.024395,0-0.0460815,0.0542068-0.024395,0.1084213
			c0,0.0270996,0,0.0270996,0.024395,0.0542068c0.1653404,0.0542068,0.3550758,0.0542068,0.566494,0.0542068
			c0.9432602,0.0271072,1.8865204,0.1653442,2.9707222,0.4092941c0.6369705,0.1897354,1.2278633,0.4363861,1.7238884,0.7616501
			c0.4472351,0.2466583,0.753521,0.5177078,0.9893379,0.818573c0.7074432,0.8145142,0.9432564,1.7957153,0.6613655,2.9666595
			c-0.1653442,0.6261292-0.4472351,1.1980438-0.8971825,1.7970734c-0.4933128,0.7074432-1.1085968,1.360672-1.9109116,1.9868011
			c-1.6506996,1.3633881-3.4423485,2.2605667-5.35326,2.7240677c-0.6857605,0.1626282-1.3932037,0.2466583-2.0762558,0.2466583
			c-0.5421028,0-1.1329918-0.0840302-1.7211761-0.2195511c-0.590889-0.1355286-1.1573868-0.4092941-1.6534119-0.8429718
			c-0.2818947-0.2195511-0.4472351-0.4092865-0.5881805-0.6261292c-0.6152878-0.8998871-0.6369705-1.9895172-0.04879-2.9409103
			c0.235817-0.3821793,0.5664978-0.7101517,1.0625229-1.1167297c0.566494-0.4363937,1.2495461-0.7914658,2.2415924-1.1167297
			l0.0948677-0.0271072c0.0921593-0.0542068,0.187027-0.0813141,0.2574997-0.0813141
			c0.3306808-0.1111298,0.3306808-0.138237,0.3306808-0.7372589c0.024395-0.3794708,0.1192627-0.7074432,0.3306847-1.1980438
			l0.2114182-0.4906082l0.235817-0.4865341c0.04879-0.138237,0.04879-0.1653442,0-0.2195511
			c0,0-0.0704727-0.0271072-0.1165543-0.0271072h-0.04879c-0.1409454,0-0.2818909,0.0271072-0.4228363,0.0542145
			l-0.0948715,0.0270996l0.024395-0.0270996c-0.0948677,0.0542068-0.1653404,0.0542068-0.2141304,0.0813141
			c-0.1165504,0.0271072-0.2818909,0.0542068-0.4228401,0.0542068h-0.0704727c-0.2602081,0-0.4716301-0.1626282-0.5664978-0.4065781
			c-0.0704727-0.355072,0.0216866-0.6261215,0.2818947-0.818573c0.2796021-0.2150803,1.5235748-0.8824844,2.9734344-1.6886444
			c0.2818909-0.1355286,0.4716263-0.325264,0.6830482-0.7074509c0.7562332-1.2251511,1.5802269-2.5316162,2.4530144-3.8109741
			c0.3062859-0.4363937,0.6857605-0.9812088,1.1086006-1.4718094c0.2141304-0.1897354,0.4499435-0.4092941,0.7806244-0.5448151
			c0,0,0.0460815-0.0271072,0.1409492-0.0271072c0.1870232,0,0.3523674,0.0813141,0.4716301,0.2466583
			c0.0948677,0.1355286,0.1409454,0.3523636,0.1165504,0.542099c0,0.1924515-0.0948677,0.3821869-0.2574997,0.463501
			c-0.4499435,0.2466583-0.7318382,0.6532364-1.0381241,1.1167297l-0.04879,0.0813141
			c-0.4472351,0.6261292-0.8971825,1.3091812-1.3200226,1.9624176l-0.3306808,0.4906006l-0.1897354,0.325264v0.0270996
			c0,0.0271072,0.024395,0.0271072,0.024395,0.0271072h0.024395c0.1165504,0,0.2114182-0.0271072,0.3306808-0.0542068
			l0.4716301-0.189743c1.5802269-0.680336,3.1848526-1.3362808,4.7406883-2.1792526
			c1.3444138-0.7345428,2.3581467-1.4419861,3.2309303-2.2063522c0.4960251-0.4363937,0.9432564-0.9242859,1.322731-1.4419937
			c0.3523674-0.4906006,0.6125755-1.0083084,0.8023109-1.4989166c0.3523674-1.1167297,0.187027-2.0681229-0.4716301-2.9680099
			c-0.3794708-0.4906006-0.8267059-0.8971786-1.3688087-1.1980438c-0.6857605-0.4363937-1.4148865-0.7345505-2.1955147-0.9541016
			c-1.3904953-0.4065781-2.759304-0.5990219-4.1037178-0.5990219c-0.1165504,0-0.3062859,0.0270996-0.4716301,0.0270996
			c-3.8462143,0.0271072-7.5243835,0.9541016-10.8989716,2.7511749c-1.1546783,0.6261292-2.1223297,1.3064651-2.9951172,2.0979385
			c-0.7074432,0.6532288-1.2495461,1.2793579-1.6506996,1.9596939c-0.2141304,0.3550797-0.4011574,0.7345505-0.5204201,1.0625229
			c-0.4011574,1.1167297-0.3306808,2.2063599,0.2358131,3.2390671c0.3767624,0.7643661,0.9676552,1.4718094,1.7943611,2.1521454
			c0.6369705,0.5448151,1.3444138,0.9541016,2.263279,1.3335724c0.1897354,0.0840225,0.3550758,0.138237,0.5204163,0.1924438
			v0.0271072l0.6125755,0.2439499c0.3062897,0.1382294,0.5421028,0.3008652,0.7779198,0.5448074
			c0.1192627,0.1355286,0.1897354,0.3008728,0.1897354,0.463501s-0.0704727,0.3279724-0.1897354,0.4634933
			c-0.0948677,0.1084213-0.211422,0.1626358-0.3306847,0.1626358h-0.0460777c-0.1409454,0-0.2141304,0-0.3062859-0.0542145
			c-0.4716301-0.2981567-0.9676552-0.5177078-1.4880714-0.7074432c-0.4228401-0.1924438-0.8483925-0.355072-1.2495499-0.5719147
			c-1.298336-0.7345505-2.3120651-1.607338-3.1143761-2.7240677c-0.235817-0.3821793-0.4716301-0.7616501-0.6369705-1.1709442
			c-0.5664978-1.2793579-0.6125793-2.6671448-0.1165543-4.0576324c0.2602081-0.788765,0.6830482-1.5531235,1.3444138-2.368988
			c0.7535248-0.9269943,1.6507034-1.7428589,2.783699-2.5316238c1.5097542-1.0354156,3.1848526-1.8539886,5.2123146-2.5614319
			c1.6046257-0.5177078,3.2553253-0.8971786,4.859951-1.1167297c0.9676514-0.1084213,1.9813843-0.2439499,3.0682983-0.2439499
			c0.235817,0,0.4472351,0.0271072,0.6125793,0.0271072c2.2632751,0.1084213,3.9383736,0.4634933,5.40205,1.1167297
			c0.8239975,0.325264,1.5097542,0.7345505,2.1684113,1.3064651c0.3794708,0.3550797,0.6613655,0.6532364,0.8971786,1.0354156
			C62.1273155,93.5008316,62.3170547,94.7801895,61.8698196,96.2791061z M48.1166763,107.2539749
			c-0.0948677,0-0.1192627,0-0.1653404,0.0270996h-0.1192627c-0.211422,0.0271072-0.3767624,0.1355286-0.4716301,0.3523712
			c-0.3306847,0.6247711-0.6369705,1.1966934-0.8727837,1.7957153l-0.1409492,0.5177078
			c-0.024395,0.0813141,0,0.1653366,0.024395,0.2195511c0.0460777,0.0542068,0.0948677,0.0813141,0.1409454,0.0813141
			c0.1897392-0.0271072,0.3306847-0.0271072,0.4255524-0.0542068c0.5158844,0,2.1072998-0.2466583,2.8297768-0.2466583
			c0.566494,0,1.1546783,0.0542068,1.7699623,0.138237c0.4228401,0.0542068,0.7779198,0.1897354,1.1086006,0.3523636
			c0.4960251,0.3279724,0.7074432,0.7616577,0.6369705,1.3335724v-0.0271072l-0.024395,0.1653442
			c-0.4097633,1.2608109-1.5016708,1.4494095-1.6046219,1.4962006h-0.1165543c-0.2602081,0-0.4960213-0.1897354-0.5664978-0.4634933
			c-0.0948677-0.325264,0.0460815-0.6532364,0.3306847-0.788765c0.208252-0.1837463,1.6949196-0.4897079-0.8023109-0.7887573
			c-0.1903038-0.022789-0.3767624-0.0270996-0.5908928-0.0270996c-1.273941,0-2.5939598,0.1626282-4.1281128,0.4906006
			c-0.9893341,0.1897354-1.7916489,0.4607849-2.4774055,0.8971786c-0.2818947,0.1897354-0.6369705,0.4092865-0.9188652,0.7074432
			c-0.3306847,0.3821793-0.4960251,0.7643661-0.4716301,1.0625229c0.024395,0.3279724,0.211422,0.680336,0.5881805,0.9812012
			c0.3550797,0.325264,0.7806282,0.5177078,1.3932037,0.6532364c0.4011574,0.0813141,0.8023148,0.1355286,1.2251511,0.1355286
			c0.4255524,0,0.7806282-0.0271072,1.1329956-0.1084213c1.8160439-0.2710495,3.6274414-0.9937057,5.3242226-2.2459641
			c1.8708801-1.2746353,2.2266846-2.1828537,2.6745033-3.3647995c0.2114182-0.680336,0.0921555-1.2793655-0.4255524-1.7428589
			c-0.1409454-0.1626282-0.3062859-0.325264-0.5664978-0.4607849c-0.2818909-0.2195511-0.6125755-0.3808289-1.1546783-0.5434647
			C50.7811089,107.3623962,49.4366951,107.2810745,48.1166763,107.2539749z"/>
	</g>
</g>
</svg>
